<?xml version="1.0" encoding="UTF-8" standalone="no"?>
<!DOCTYPE svg PUBLIC "-//W3C//DTD SVG 1.1//EN"
 "http://www.w3.org/Graphics/SVG/1.1/DTD/svg11.dtd">
<!-- Generated by graphviz version 2.43.0 (0)
 -->
<!-- Title: %3 Pages: 1 -->
<svg width="543pt" height="238pt"
 viewBox="0.00 0.00 543.00 237.74" xmlns="http://www.w3.org/2000/svg" xmlns:xlink="http://www.w3.org/1999/xlink">
<g id="graph0" class="graph" transform="scale(1 1) rotate(0) translate(36 201.74)">
<title>%3</title>
<polygon fill="dimgray" stroke="transparent" points="-36,36 -36,-201.74 507,-201.74 507,36 -36,36"/>
<text text-anchor="middle" x="235.5" y="-150.54" font-family="Helvetica,sans-Serif" font-size="14.00">Sweep&#39;s Plan &amp; Progress</text>
<!-- start -->
<g id="node1" class="node">
<title>start</title>
</g>
<!-- 9ceece6e&#45;30a8&#45;443d&#45;a925&#45;3e94743b409f -->
<g id="node3" class="node">
<title>9ceece6e&#45;30a8&#45;443d&#45;a925&#45;3e94743b409f</title>
<ellipse fill="#0ee832" stroke="black" cx="232.5" cy="-99.87" rx="179.71" ry="26.74"/>
<text text-anchor="middle" x="232.5" y="-103.67" font-family="Helvetica,sans-Serif" font-size="14.00">✓ Modify</text>
<text text-anchor="middle" x="232.5" y="-88.67" font-family="Helvetica,sans-Serif" font-size="14.00">MarketUtils/Excel/strategy_calc.py</text>
</g>
<!-- start&#45;&gt;9ceece6e&#45;30a8&#45;443d&#45;a925&#45;3e94743b409f -->
<g id="edge2" class="edge">
<title>start&#45;&gt;9ceece6e&#45;30a8&#45;443d&#45;a925&#45;3e94743b409f</title>
<path fill="none" stroke="black" d="M1.17,-99.87C4.55,-99.87 20.52,-99.87 42.62,-99.87"/>
<polygon fill="black" stroke="black" points="42.82,-103.37 52.82,-99.87 42.82,-96.37 42.82,-103.37"/>
<text text-anchor="middle" x="26.95" y="-106.67" font-family="Helvetica,sans-Serif" font-size="14.00">Start</text>
</g>
<!-- end -->
<g id="node2" class="node">
<title>end</title>
</g>
<!-- 9ceece6e&#45;30a8&#45;443d&#45;a925&#45;3e94743b409f&#45;&gt;end -->
<g id="edge3" class="edge">
<title>9ceece6e&#45;30a8&#45;443d&#45;a925&#45;3e94743b409f&#45;&gt;end</title>
<path fill="none" stroke="black" d="M412.28,-99.87C432.44,-99.87 449.42,-99.87 459.75,-99.87"/>
<polygon fill="black" stroke="black" points="459.86,-103.37 469.86,-99.87 459.86,-96.37 459.86,-103.37"/>
<text text-anchor="middle" x="441.05" y="-106.67" font-family="Helvetica,sans-Serif" font-size="14.00">Finish</text>
</g>
<!-- ca90d7d2&#45;d857&#45;4ac6&#45;8b4a&#45;dbe2cffaf281 -->
<g id="node4" class="node">
<title>ca90d7d2&#45;d857&#45;4ac6&#45;8b4a&#45;dbe2cffaf281</title>
<polygon fill="#0ee832" stroke="black" points="455.5,-36 9.5,-36 9.5,0 455.5,0 455.5,-36"/>
<text text-anchor="middle" x="232.5" y="-14.3" font-family="Helvetica,sans-Serif" font-size="14.00">✓ Run GitHub Actions for `MarketUtils/Excel/strategy_calc.py`</text>
</g>
<!-- 9ceece6e&#45;30a8&#45;443d&#45;a925&#45;3e94743b409f&#45;&gt;ca90d7d2&#45;d857&#45;4ac6&#45;8b4a&#45;dbe2cffaf281 -->
<g id="edge1" class="edge">
<title>9ceece6e&#45;30a8&#45;443d&#45;a925&#45;3e94743b409f&#45;&gt;ca90d7d2&#45;d857&#45;4ac6&#45;8b4a&#45;dbe2cffaf281</title>
<path fill="none" stroke="black" stroke-dasharray="5,2" d="M232.5,-72.72C232.5,-64.27 232.5,-54.89 232.5,-46.36"/>
<polygon fill="black" stroke="black" points="236,-46.15 232.5,-36.15 229,-46.15 236,-46.15"/>
</g>
</g>
</svg>
