<?xml version="1.0" encoding="UTF-8" standalone="no"?>
<!DOCTYPE svg PUBLIC "-//W3C//DTD SVG 1.1//EN"
 "http://www.w3.org/Graphics/SVG/1.1/DTD/svg11.dtd">
<!-- Generated by graphviz version 2.43.0 (0)
 -->
<!-- Title: %3 Pages: 1 -->
<svg width="848pt" height="165pt"
 viewBox="0.00 0.00 848.00 164.74" xmlns="http://www.w3.org/2000/svg" xmlns:xlink="http://www.w3.org/1999/xlink">
<g id="graph0" class="graph" transform="scale(1 1) rotate(0) translate(36 128.74)">
<title>%3</title>
<polygon fill="dimgray" stroke="transparent" points="-36,36 -36,-128.74 812,-128.74 812,36 -36,36"/>
<text text-anchor="middle" x="388" y="-77.54" font-family="Helvetica,sans-Serif" font-size="14.00">Sweep&#39;s Plan &amp; Progress</text>
<!-- start -->
<g id="node1" class="node">
<title>start</title>
</g>
<!-- 9106adfb&#45;a6f3&#45;4d77&#45;b108&#45;0db2b2db8f87 -->
<g id="node3" class="node">
<title>9106adfb&#45;a6f3&#45;4d77&#45;b108&#45;0db2b2db8f87</title>
<ellipse fill="yellow" stroke="black" cx="198.5" cy="-26.87" rx="145.83" ry="26.74"/>
<text text-anchor="middle" x="198.5" y="-30.67" font-family="Helvetica,sans-Serif" font-size="14.00">⋯ Create</text>
<text text-anchor="middle" x="198.5" y="-15.67" font-family="Helvetica,sans-Serif" font-size="14.00">MarketUtils/margin_utils.py</text>
</g>
<!-- start&#45;&gt;9106adfb&#45;a6f3&#45;4d77&#45;b108&#45;0db2b2db8f87 -->
<g id="edge2" class="edge">
<title>start&#45;&gt;9106adfb&#45;a6f3&#45;4d77&#45;b108&#45;0db2b2db8f87</title>
<path fill="none" stroke="black" d="M1.07,-26.87C4.26,-26.87 20.6,-26.87 42.63,-26.87"/>
<polygon fill="black" stroke="black" points="42.76,-30.37 52.76,-26.87 42.76,-23.37 42.76,-30.37"/>
<text text-anchor="middle" x="26.92" y="-33.67" font-family="Helvetica,sans-Serif" font-size="14.00">Start</text>
</g>
<!-- end -->
<g id="node2" class="node">
<title>end</title>
</g>
<!-- 9fa64c15&#45;976d&#45;499b&#45;aa14&#45;e8d71042d719 -->
<g id="node4" class="node">
<title>9fa64c15&#45;976d&#45;499b&#45;aa14&#45;e8d71042d719</title>
<ellipse fill="white" stroke="black" cx="548.5" cy="-26.87" rx="169" ry="26.74"/>
<text text-anchor="middle" x="548.5" y="-30.67" font-family="Helvetica,sans-Serif" font-size="14.00">▶ Create</text>
<text text-anchor="middle" x="548.5" y="-15.67" font-family="Helvetica,sans-Serif" font-size="14.00">MarketUtils/test_margin_utils.py</text>
</g>
<!-- 9106adfb&#45;a6f3&#45;4d77&#45;b108&#45;0db2b2db8f87&#45;&gt;9fa64c15&#45;976d&#45;499b&#45;aa14&#45;e8d71042d719 -->
<g id="edge1" class="edge">
<title>9106adfb&#45;a6f3&#45;4d77&#45;b108&#45;0db2b2db8f87&#45;&gt;9fa64c15&#45;976d&#45;499b&#45;aa14&#45;e8d71042d719</title>
<path fill="none" stroke="black" d="M344.45,-26.87C352.66,-26.87 360.88,-26.87 369.1,-26.87"/>
<polygon fill="black" stroke="black" points="369.12,-30.37 379.12,-26.87 369.12,-23.37 369.12,-30.37"/>
</g>
<!-- 9fa64c15&#45;976d&#45;499b&#45;aa14&#45;e8d71042d719&#45;&gt;end -->
<g id="edge3" class="edge">
<title>9fa64c15&#45;976d&#45;499b&#45;aa14&#45;e8d71042d719&#45;&gt;end</title>
<path fill="none" stroke="black" d="M717.63,-26.87C737.57,-26.87 754.47,-26.87 764.77,-26.87"/>
<polygon fill="black" stroke="black" points="764.86,-30.37 774.86,-26.87 764.86,-23.37 764.86,-30.37"/>
<text text-anchor="middle" x="746.25" y="-33.67" font-family="Helvetica,sans-Serif" font-size="14.00">Finish</text>
</g>
</g>
</svg>
