<?xml version="1.0" encoding="UTF-8" standalone="no"?>
<!DOCTYPE svg PUBLIC "-//W3C//DTD SVG 1.1//EN"
 "http://www.w3.org/Graphics/SVG/1.1/DTD/svg11.dtd">
<!-- Generated by graphviz version 2.43.0 (0)
 -->
<!-- Title: %3 Pages: 1 -->
<svg width="329pt" height="238pt"
 viewBox="0.00 0.00 329.00 237.74" xmlns="http://www.w3.org/2000/svg" xmlns:xlink="http://www.w3.org/1999/xlink">
<g id="graph0" class="graph" transform="scale(1 1) rotate(0) translate(36 201.74)">
<title>%3</title>
<polygon fill="dimgray" stroke="transparent" points="-36,36 -36,-201.74 293,-201.74 293,36 -36,36"/>
<text text-anchor="middle" x="128.5" y="-150.54" font-family="Helvetica,sans-Serif" font-size="14.00">Sweep&#39;s Plan &amp; Progress</text>
<!-- start -->
<g id="node1" class="node">
<title>start</title>
</g>
<!-- f5f7d715&#45;8f37&#45;4558&#45;b787&#45;df86761e94e5 -->
<g id="node3" class="node">
<title>f5f7d715&#45;8f37&#45;4558&#45;b787&#45;df86761e94e5</title>
<ellipse fill="yellow" stroke="black" cx="128.5" cy="-99.87" rx="57.05" ry="26.74"/>
<text text-anchor="middle" x="128.5" y="-103.67" font-family="Helvetica,sans-Serif" font-size="14.00">⋯ Modify</text>
<text text-anchor="middle" x="128.5" y="-88.67" font-family="Helvetica,sans-Serif" font-size="14.00">trial.py</text>
</g>
<!-- start&#45;&gt;f5f7d715&#45;8f37&#45;4558&#45;b787&#45;df86761e94e5 -->
<g id="edge2" class="edge">
<title>start&#45;&gt;f5f7d715&#45;8f37&#45;4558&#45;b787&#45;df86761e94e5</title>
<path fill="none" stroke="black" d="M20.2,-99.87C23.83,-99.87 41.17,-99.87 60.96,-99.87"/>
<polygon fill="black" stroke="black" points="61.14,-103.37 71.14,-99.87 61.14,-96.37 61.14,-103.37"/>
<text text-anchor="middle" x="45.61" y="-106.67" font-family="Helvetica,sans-Serif" font-size="14.00">Start</text>
</g>
<!-- end -->
<g id="node2" class="node">
<title>end</title>
</g>
<!-- f5f7d715&#45;8f37&#45;4558&#45;b787&#45;df86761e94e5&#45;&gt;end -->
<g id="edge3" class="edge">
<title>f5f7d715&#45;8f37&#45;4558&#45;b787&#45;df86761e94e5&#45;&gt;end</title>
<path fill="none" stroke="black" d="M186,-99.87C203.71,-99.87 221.42,-99.87 232.41,-99.87"/>
<polygon fill="black" stroke="black" points="232.77,-103.37 242.77,-99.87 232.77,-96.37 232.77,-103.37"/>
<text text-anchor="middle" x="214.39" y="-106.67" font-family="Helvetica,sans-Serif" font-size="14.00">Finish</text>
</g>
<!-- ebd8c5aa&#45;052e&#45;4081&#45;826c&#45;5a13f992cd07 -->
<g id="node4" class="node">
<title>ebd8c5aa&#45;052e&#45;4081&#45;826c&#45;5a13f992cd07</title>
<polygon fill="white" stroke="black" points="257,-36 0,-36 0,0 257,0 257,-36"/>
<text text-anchor="middle" x="128.5" y="-14.3" font-family="Helvetica,sans-Serif" font-size="14.00">▶ Run GitHub Actions for `trial.py`</text>
</g>
<!-- f5f7d715&#45;8f37&#45;4558&#45;b787&#45;df86761e94e5&#45;&gt;ebd8c5aa&#45;052e&#45;4081&#45;826c&#45;5a13f992cd07 -->
<g id="edge1" class="edge">
<title>f5f7d715&#45;8f37&#45;4558&#45;b787&#45;df86761e94e5&#45;&gt;ebd8c5aa&#45;052e&#45;4081&#45;826c&#45;5a13f992cd07</title>
<path fill="none" stroke="black" stroke-dasharray="5,2" d="M128.5,-72.72C128.5,-64.27 128.5,-54.89 128.5,-46.36"/>
<polygon fill="black" stroke="black" points="132,-46.15 128.5,-36.15 125,-46.15 132,-46.15"/>
</g>
</g>
</svg>
