<?xml version="1.0" encoding="UTF-8" standalone="no"?>
<!DOCTYPE svg PUBLIC "-//W3C//DTD SVG 1.1//EN"
 "http://www.w3.org/Graphics/SVG/1.1/DTD/svg11.dtd">
<!-- Generated by graphviz version 2.43.0 (0)
 -->
<!-- Title: %3 Pages: 1 -->
<svg width="1059pt" height="238pt"
 viewBox="0.00 0.00 1058.50 237.74" xmlns="http://www.w3.org/2000/svg" xmlns:xlink="http://www.w3.org/1999/xlink">
<g id="graph0" class="graph" transform="scale(1 1) rotate(0) translate(36 201.74)">
<title>%3</title>
<polygon fill="dimgray" stroke="transparent" points="-36,36 -36,-201.74 1022.5,-201.74 1022.5,36 -36,36"/>
<text text-anchor="middle" x="493.25" y="-150.54" font-family="Helvetica,sans-Serif" font-size="14.00">Sweep&#39;s Plan &amp; Progress</text>
<!-- start -->
<g id="node1" class="node">
<title>start</title>
</g>
<!-- 6807b038&#45;dec7&#45;46b4&#45;8c16&#45;d19dc9470f6a -->
<g id="node3" class="node">
<title>6807b038&#45;dec7&#45;46b4&#45;8c16&#45;d19dc9470f6a</title>
<ellipse fill="#0ee832" stroke="black" cx="258" cy="-99.87" rx="188.18" ry="26.74"/>
<text text-anchor="middle" x="258" y="-103.67" font-family="Helvetica,sans-Serif" font-size="14.00">✓ Modify</text>
<text text-anchor="middle" x="258" y="-88.67" font-family="Helvetica,sans-Serif" font-size="14.00">MarketUtils/Calculations/qty_calc.py</text>
</g>
<!-- start&#45;&gt;6807b038&#45;dec7&#45;46b4&#45;8c16&#45;d19dc9470f6a -->
<g id="edge4" class="edge">
<title>start&#45;&gt;6807b038&#45;dec7&#45;46b4&#45;8c16&#45;d19dc9470f6a</title>
<path fill="none" stroke="black" d="M18.69,-99.87C22.09,-99.87 37.81,-99.87 59.71,-99.87"/>
<polygon fill="black" stroke="black" points="59.82,-103.37 69.82,-99.87 59.82,-96.37 59.82,-103.37"/>
<text text-anchor="middle" x="44.2" y="-106.67" font-family="Helvetica,sans-Serif" font-size="14.00">Start</text>
</g>
<!-- end -->
<g id="node2" class="node">
<title>end</title>
</g>
<!-- 092e952d&#45;3bc0&#45;4f9a&#45;a288&#45;444b87a6fe28 -->
<g id="node4" class="node">
<title>092e952d&#45;3bc0&#45;4f9a&#45;a288&#45;444b87a6fe28</title>
<ellipse fill="#0ee832" stroke="black" cx="712" cy="-99.87" rx="215.84" ry="26.74"/>
<text text-anchor="middle" x="712" y="-103.67" font-family="Helvetica,sans-Serif" font-size="14.00">✓ Modify</text>
<text text-anchor="middle" x="712" y="-88.67" font-family="Helvetica,sans-Serif" font-size="14.00">MarketUtils/Calculations/taxcalculation.py</text>
</g>
<!-- 6807b038&#45;dec7&#45;46b4&#45;8c16&#45;d19dc9470f6a&#45;&gt;092e952d&#45;3bc0&#45;4f9a&#45;a288&#45;444b87a6fe28 -->
<g id="edge2" class="edge">
<title>6807b038&#45;dec7&#45;46b4&#45;8c16&#45;d19dc9470f6a&#45;&gt;092e952d&#45;3bc0&#45;4f9a&#45;a288&#45;444b87a6fe28</title>
<path fill="none" stroke="black" d="M446.43,-99.87C459.65,-99.87 472.88,-99.87 486.11,-99.87"/>
<polygon fill="black" stroke="black" points="486.22,-103.37 496.22,-99.87 486.22,-96.37 486.22,-103.37"/>
</g>
<!-- 2c077dfd&#45;3afb&#45;4247&#45;a21b&#45;8d68d3b83b5c -->
<g id="node5" class="node">
<title>2c077dfd&#45;3afb&#45;4247&#45;a21b&#45;8d68d3b83b5c</title>
<polygon fill="#0ee832" stroke="black" points="458,-36 0,-36 0,0 458,0 458,-36"/>
<text text-anchor="middle" x="229" y="-14.3" font-family="Helvetica,sans-Serif" font-size="14.00">✓ Run GitHub Actions for `MarketUtils/Calculations/qty_calc.py`</text>
</g>
<!-- 6807b038&#45;dec7&#45;46b4&#45;8c16&#45;d19dc9470f6a&#45;&gt;2c077dfd&#45;3afb&#45;4247&#45;a21b&#45;8d68d3b83b5c -->
<g id="edge1" class="edge">
<title>6807b038&#45;dec7&#45;46b4&#45;8c16&#45;d19dc9470f6a&#45;&gt;2c077dfd&#45;3afb&#45;4247&#45;a21b&#45;8d68d3b83b5c</title>
<path fill="none" stroke="black" stroke-dasharray="5,2" d="M248.5,-72.72C245.37,-64.08 241.88,-54.47 238.73,-45.79"/>
<polygon fill="black" stroke="black" points="241.93,-44.35 235.23,-36.15 235.35,-46.74 241.93,-44.35"/>
</g>
<!-- 092e952d&#45;3bc0&#45;4f9a&#45;a288&#45;444b87a6fe28&#45;&gt;end -->
<g id="edge5" class="edge">
<title>092e952d&#45;3bc0&#45;4f9a&#45;a288&#45;444b87a6fe28&#45;&gt;end</title>
<path fill="none" stroke="black" d="M927.89,-99.87C948.09,-99.87 964.81,-99.87 975.06,-99.87"/>
<polygon fill="black" stroke="black" points="975.38,-103.37 985.38,-99.87 975.38,-96.37 975.38,-103.37"/>
<text text-anchor="middle" x="956.58" y="-106.67" font-family="Helvetica,sans-Serif" font-size="14.00">Finish</text>
</g>
<!-- 6e4cbcf6&#45;8508&#45;4f5c&#45;a69f&#45;2cf03fe28fea -->
<g id="node6" class="node">
<title>6e4cbcf6&#45;8508&#45;4f5c&#45;a69f&#45;2cf03fe28fea</title>
<polygon fill="yellow" stroke="black" points="976,-36 476,-36 476,0 976,0 976,-36"/>
<text text-anchor="middle" x="726" y="-14.3" font-family="Helvetica,sans-Serif" font-size="14.00">⋯ Run GitHub Actions for `MarketUtils/Calculations/taxcalculation.py`</text>
</g>
<!-- 092e952d&#45;3bc0&#45;4f9a&#45;a288&#45;444b87a6fe28&#45;&gt;6e4cbcf6&#45;8508&#45;4f5c&#45;a69f&#45;2cf03fe28fea -->
<g id="edge3" class="edge">
<title>092e952d&#45;3bc0&#45;4f9a&#45;a288&#45;444b87a6fe28&#45;&gt;6e4cbcf6&#45;8508&#45;4f5c&#45;a69f&#45;2cf03fe28fea</title>
<path fill="none" stroke="black" stroke-dasharray="5,2" d="M716.58,-72.72C718.08,-64.18 719.75,-54.68 721.25,-46.08"/>
<polygon fill="black" stroke="black" points="724.72,-46.6 722.99,-36.15 717.82,-45.39 724.72,-46.6"/>
</g>
</g>
</svg>
