<?xml version="1.0" encoding="UTF-8" standalone="no"?>
<!DOCTYPE svg PUBLIC "-//W3C//DTD SVG 1.1//EN"
 "http://www.w3.org/Graphics/SVG/1.1/DTD/svg11.dtd">
<!-- Generated by graphviz version 2.43.0 (0)
 -->
<!-- Title: %3 Pages: 1 -->
<svg width="371pt" height="238pt"
 viewBox="0.00 0.00 371.00 237.74" xmlns="http://www.w3.org/2000/svg" xmlns:xlink="http://www.w3.org/1999/xlink">
<g id="graph0" class="graph" transform="scale(1 1) rotate(0) translate(36 201.74)">
<title>%3</title>
<polygon fill="dimgray" stroke="transparent" points="-36,36 -36,-201.74 335,-201.74 335,36 -36,36"/>
<text text-anchor="middle" x="149.5" y="-150.54" font-family="Helvetica,sans-Serif" font-size="14.00">Sweep&#39;s Plan &amp; Progress</text>
<!-- start -->
<g id="node1" class="node">
<title>start</title>
</g>
<!-- 46435799&#45;372e&#45;44ed&#45;9563&#45;74c364358b99 -->
<g id="node3" class="node">
<title>46435799&#45;372e&#45;44ed&#45;9563&#45;74c364358b99</title>
<ellipse fill="#0ee832" stroke="black" cx="149.5" cy="-99.87" rx="73.58" ry="26.74"/>
<text text-anchor="middle" x="149.5" y="-103.67" font-family="Helvetica,sans-Serif" font-size="14.00">✓ Modify</text>
<text text-anchor="middle" x="149.5" y="-88.67" font-family="Helvetica,sans-Serif" font-size="14.00">README.md</text>
</g>
<!-- start&#45;&gt;46435799&#45;372e&#45;44ed&#45;9563&#45;74c364358b99 -->
<g id="edge2" class="edge">
<title>start&#45;&gt;46435799&#45;372e&#45;44ed&#45;9563&#45;74c364358b99</title>
<path fill="none" stroke="black" d="M24.3,-99.87C28.14,-99.87 45.24,-99.87 65.62,-99.87"/>
<polygon fill="black" stroke="black" points="65.85,-103.37 75.85,-99.87 65.85,-96.37 65.85,-103.37"/>
<text text-anchor="middle" x="49.98" y="-106.67" font-family="Helvetica,sans-Serif" font-size="14.00">Start</text>
</g>
<!-- end -->
<g id="node2" class="node">
<title>end</title>
</g>
<!-- 46435799&#45;372e&#45;44ed&#45;9563&#45;74c364358b99&#45;&gt;end -->
<g id="edge3" class="edge">
<title>46435799&#45;372e&#45;44ed&#45;9563&#45;74c364358b99&#45;&gt;end</title>
<path fill="none" stroke="black" d="M223.22,-99.87C241.84,-99.87 259.64,-99.87 270.56,-99.87"/>
<polygon fill="black" stroke="black" points="270.78,-103.37 280.78,-99.87 270.78,-96.37 270.78,-103.37"/>
<text text-anchor="middle" x="252.02" y="-106.67" font-family="Helvetica,sans-Serif" font-size="14.00">Finish</text>
</g>
<!-- cc7d771e&#45;f46f&#45;4b6c&#45;bb9f&#45;99b9e8faac23 -->
<g id="node4" class="node">
<title>cc7d771e&#45;f46f&#45;4b6c&#45;bb9f&#45;99b9e8faac23</title>
<polygon fill="yellow" stroke="black" points="299,-36 0,-36 0,0 299,0 299,-36"/>
<text text-anchor="middle" x="149.5" y="-14.3" font-family="Helvetica,sans-Serif" font-size="14.00">⋯ Run GitHub Actions for `README.md`</text>
</g>
<!-- 46435799&#45;372e&#45;44ed&#45;9563&#45;74c364358b99&#45;&gt;cc7d771e&#45;f46f&#45;4b6c&#45;bb9f&#45;99b9e8faac23 -->
<g id="edge1" class="edge">
<title>46435799&#45;372e&#45;44ed&#45;9563&#45;74c364358b99&#45;&gt;cc7d771e&#45;f46f&#45;4b6c&#45;bb9f&#45;99b9e8faac23</title>
<path fill="none" stroke="black" stroke-dasharray="5,2" d="M149.5,-72.72C149.5,-64.27 149.5,-54.89 149.5,-46.36"/>
<polygon fill="black" stroke="black" points="153,-46.15 149.5,-36.15 146,-46.15 153,-46.15"/>
</g>
</g>
</svg>
