<?xml version="1.0" encoding="UTF-8" standalone="no"?>
<!DOCTYPE svg PUBLIC "-//W3C//DTD SVG 1.1//EN"
 "http://www.w3.org/Graphics/SVG/1.1/DTD/svg11.dtd">
<!-- Generated by graphviz version 2.43.0 (0)
 -->
<!-- Title: %3 Pages: 1 -->
<svg width="2607pt" height="238pt"
 viewBox="0.00 0.00 2606.50 237.74" xmlns="http://www.w3.org/2000/svg" xmlns:xlink="http://www.w3.org/1999/xlink">
<g id="graph0" class="graph" transform="scale(1 1) rotate(0) translate(36 201.74)">
<title>%3</title>
<polygon fill="dimgray" stroke="transparent" points="-36,36 -36,-201.74 2570.5,-201.74 2570.5,36 -36,36"/>
<text text-anchor="middle" x="1267.25" y="-150.54" font-family="Helvetica,sans-Serif" font-size="14.00">Sweep&#39;s Plan &amp; Progress</text>
<!-- start -->
<g id="node1" class="node">
<title>start</title>
</g>
<!-- d8c123d7&#45;6816&#45;4f46&#45;97c8&#45;29e5b9416f43 -->
<g id="node3" class="node">
<title>d8c123d7&#45;6816&#45;4f46&#45;97c8&#45;29e5b9416f43</title>
<ellipse fill="#0ee832" stroke="black" cx="264" cy="-99.87" rx="198.89" ry="26.74"/>
<text text-anchor="middle" x="264" y="-103.67" font-family="Helvetica,sans-Serif" font-size="14.00">✓ Create</text>
<text text-anchor="middle" x="264" y="-88.67" font-family="Helvetica,sans-Serif" font-size="14.00">MarketUtils/Holdings/holdings_utils.py</text>
</g>
<!-- start&#45;&gt;d8c123d7&#45;6816&#45;4f46&#45;97c8&#45;29e5b9416f43 -->
<g id="edge10" class="edge">
<title>start&#45;&gt;d8c123d7&#45;6816&#45;4f46&#45;97c8&#45;29e5b9416f43</title>
<path fill="none" stroke="black" d="M13.72,-99.87C17.19,-99.87 32.92,-99.87 54.94,-99.87"/>
<polygon fill="black" stroke="black" points="55.11,-103.37 65.11,-99.87 55.11,-96.37 55.11,-103.37"/>
<text text-anchor="middle" x="39.4" y="-106.67" font-family="Helvetica,sans-Serif" font-size="14.00">Start</text>
</g>
<!-- end -->
<g id="node2" class="node">
<title>end</title>
</g>
<!-- 5cf86710&#45;1c1b&#45;4ebd&#45;b240&#45;e4f3de1c844a -->
<g id="node4" class="node">
<title>5cf86710&#45;1c1b&#45;4ebd&#45;b240&#45;e4f3de1c844a</title>
<ellipse fill="#0ee832" stroke="black" cx="739" cy="-99.87" rx="212.68" ry="26.74"/>
<text text-anchor="middle" x="739" y="-103.67" font-family="Helvetica,sans-Serif" font-size="14.00">✓ Modify</text>
<text text-anchor="middle" x="739" y="-88.67" font-family="Helvetica,sans-Serif" font-size="14.00">MarketUtils/Holdings/zerodhaholdings.py</text>
</g>
<!-- d8c123d7&#45;6816&#45;4f46&#45;97c8&#45;29e5b9416f43&#45;&gt;5cf86710&#45;1c1b&#45;4ebd&#45;b240&#45;e4f3de1c844a -->
<g id="edge2" class="edge">
<title>d8c123d7&#45;6816&#45;4f46&#45;97c8&#45;29e5b9416f43&#45;&gt;5cf86710&#45;1c1b&#45;4ebd&#45;b240&#45;e4f3de1c844a</title>
<path fill="none" stroke="black" d="M463,-99.87C480.57,-99.87 498.15,-99.87 515.72,-99.87"/>
<polygon fill="black" stroke="black" points="516.07,-103.37 526.07,-99.87 516.07,-96.37 516.07,-103.37"/>
</g>
<!-- 2406054e&#45;18f6&#45;4b87&#45;87b7&#45;659f0fc6b166 -->
<g id="node8" class="node">
<title>2406054e&#45;18f6&#45;4b87&#45;87b7&#45;659f0fc6b166</title>
<polygon fill="#0ee832" stroke="black" points="474,-36 0,-36 0,0 474,0 474,-36"/>
<text text-anchor="middle" x="237" y="-14.3" font-family="Helvetica,sans-Serif" font-size="14.00">✓ Run GitHub Actions for `MarketUtils/Holdings/holdings_utils.py`</text>
</g>
<!-- d8c123d7&#45;6816&#45;4f46&#45;97c8&#45;29e5b9416f43&#45;&gt;2406054e&#45;18f6&#45;4b87&#45;87b7&#45;659f0fc6b166 -->
<g id="edge1" class="edge">
<title>d8c123d7&#45;6816&#45;4f46&#45;97c8&#45;29e5b9416f43&#45;&gt;2406054e&#45;18f6&#45;4b87&#45;87b7&#45;659f0fc6b166</title>
<path fill="none" stroke="black" stroke-dasharray="5,2" d="M255.16,-72.72C252.24,-64.08 248.99,-54.47 246.06,-45.79"/>
<polygon fill="black" stroke="black" points="249.31,-44.5 242.8,-36.15 242.68,-46.74 249.31,-44.5"/>
</g>
<!-- 78a7cf57&#45;264d&#45;4db3&#45;82cb&#45;bf229ab1f5e1 -->
<g id="node5" class="node">
<title>78a7cf57&#45;264d&#45;4db3&#45;82cb&#45;bf229ab1f5e1</title>
<ellipse fill="#0ee832" stroke="black" cx="1254" cy="-99.87" rx="217.16" ry="26.74"/>
<text text-anchor="middle" x="1254" y="-103.67" font-family="Helvetica,sans-Serif" font-size="14.00">✓ Modify</text>
<text text-anchor="middle" x="1254" y="-88.67" font-family="Helvetica,sans-Serif" font-size="14.00">MarketUtils/Holdings/aliceblueholdings.py</text>
</g>
<!-- 5cf86710&#45;1c1b&#45;4ebd&#45;b240&#45;e4f3de1c844a&#45;&gt;78a7cf57&#45;264d&#45;4db3&#45;82cb&#45;bf229ab1f5e1 -->
<g id="edge4" class="edge">
<title>5cf86710&#45;1c1b&#45;4ebd&#45;b240&#45;e4f3de1c844a&#45;&gt;78a7cf57&#45;264d&#45;4db3&#45;82cb&#45;bf229ab1f5e1</title>
<path fill="none" stroke="black" d="M951.99,-99.87C976.79,-99.87 1001.59,-99.87 1026.39,-99.87"/>
<polygon fill="black" stroke="black" points="1026.64,-103.37 1036.64,-99.87 1026.64,-96.37 1026.64,-103.37"/>
</g>
<!-- 0c259743&#45;9370&#45;4abd&#45;9fed&#45;587e311aab40 -->
<g id="node9" class="node">
<title>0c259743&#45;9370&#45;4abd&#45;9fed&#45;587e311aab40</title>
<polygon fill="#0ee832" stroke="black" points="986,-36 492,-36 492,0 986,0 986,-36"/>
<text text-anchor="middle" x="739" y="-14.3" font-family="Helvetica,sans-Serif" font-size="14.00">✓ Run GitHub Actions for `MarketUtils/Holdings/zerodhaholdings.py`</text>
</g>
<!-- 5cf86710&#45;1c1b&#45;4ebd&#45;b240&#45;e4f3de1c844a&#45;&gt;0c259743&#45;9370&#45;4abd&#45;9fed&#45;587e311aab40 -->
<g id="edge3" class="edge">
<title>5cf86710&#45;1c1b&#45;4ebd&#45;b240&#45;e4f3de1c844a&#45;&gt;0c259743&#45;9370&#45;4abd&#45;9fed&#45;587e311aab40</title>
<path fill="none" stroke="black" stroke-dasharray="5,2" d="M739,-72.72C739,-64.27 739,-54.89 739,-46.36"/>
<polygon fill="black" stroke="black" points="742.5,-46.15 739,-36.15 735.5,-46.15 742.5,-46.15"/>
</g>
<!-- 1420dc01&#45;23f1&#45;40ba&#45;a9a1&#45;aef90f00f8c8 -->
<g id="node6" class="node">
<title>1420dc01&#45;23f1&#45;40ba&#45;a9a1&#45;aef90f00f8c8</title>
<ellipse fill="#0ee832" stroke="black" cx="1765" cy="-99.87" rx="205.12" ry="26.74"/>
<text text-anchor="middle" x="1765" y="-103.67" font-family="Helvetica,sans-Serif" font-size="14.00">✓ Modify</text>
<text text-anchor="middle" x="1765" y="-88.67" font-family="Helvetica,sans-Serif" font-size="14.00">MarketUtils/Holdings/ordersholdings.py</text>
</g>
<!-- 78a7cf57&#45;264d&#45;4db3&#45;82cb&#45;bf229ab1f5e1&#45;&gt;1420dc01&#45;23f1&#45;40ba&#45;a9a1&#45;aef90f00f8c8 -->
<g id="edge6" class="edge">
<title>78a7cf57&#45;264d&#45;4db3&#45;82cb&#45;bf229ab1f5e1&#45;&gt;1420dc01&#45;23f1&#45;40ba&#45;a9a1&#45;aef90f00f8c8</title>
<path fill="none" stroke="black" d="M1471.57,-99.87C1497.55,-99.87 1523.52,-99.87 1549.49,-99.87"/>
<polygon fill="black" stroke="black" points="1549.83,-103.37 1559.83,-99.87 1549.83,-96.37 1549.83,-103.37"/>
</g>
<!-- 0cadf928&#45;0a07&#45;4482&#45;a04d&#45;8116b97ab443 -->
<g id="node10" class="node">
<title>0cadf928&#45;0a07&#45;4482&#45;a04d&#45;8116b97ab443</title>
<polygon fill="#0ee832" stroke="black" points="1504,-36 1004,-36 1004,0 1504,0 1504,-36"/>
<text text-anchor="middle" x="1254" y="-14.3" font-family="Helvetica,sans-Serif" font-size="14.00">✓ Run GitHub Actions for `MarketUtils/Holdings/aliceblueholdings.py`</text>
</g>
<!-- 78a7cf57&#45;264d&#45;4db3&#45;82cb&#45;bf229ab1f5e1&#45;&gt;0cadf928&#45;0a07&#45;4482&#45;a04d&#45;8116b97ab443 -->
<g id="edge5" class="edge">
<title>78a7cf57&#45;264d&#45;4db3&#45;82cb&#45;bf229ab1f5e1&#45;&gt;0cadf928&#45;0a07&#45;4482&#45;a04d&#45;8116b97ab443</title>
<path fill="none" stroke="black" stroke-dasharray="5,2" d="M1254,-72.72C1254,-64.27 1254,-54.89 1254,-46.36"/>
<polygon fill="black" stroke="black" points="1257.5,-46.15 1254,-36.15 1250.5,-46.15 1257.5,-46.15"/>
</g>
<!-- 4737d2fe&#45;ada1&#45;4406&#45;aa8c&#45;12bee5b98831 -->
<g id="node7" class="node">
<title>4737d2fe&#45;ada1&#45;4406&#45;aa8c&#45;12bee5b98831</title>
<ellipse fill="white" stroke="black" cx="2254" cy="-99.87" rx="222.06" ry="26.74"/>
<text text-anchor="middle" x="2254" y="-103.67" font-family="Helvetica,sans-Serif" font-size="14.00">▶ Create</text>
<text text-anchor="middle" x="2254" y="-88.67" font-family="Helvetica,sans-Serif" font-size="14.00">MarketUtils/Holdings/holdings_utils_test.py</text>
</g>
<!-- 1420dc01&#45;23f1&#45;40ba&#45;a9a1&#45;aef90f00f8c8&#45;&gt;4737d2fe&#45;ada1&#45;4406&#45;aa8c&#45;12bee5b98831 -->
<g id="edge8" class="edge">
<title>1420dc01&#45;23f1&#45;40ba&#45;a9a1&#45;aef90f00f8c8&#45;&gt;4737d2fe&#45;ada1&#45;4406&#45;aa8c&#45;12bee5b98831</title>
<path fill="none" stroke="black" d="M1970.34,-99.87C1987.48,-99.87 2004.61,-99.87 2021.75,-99.87"/>
<polygon fill="black" stroke="black" points="2021.84,-103.37 2031.84,-99.87 2021.84,-96.37 2021.84,-103.37"/>
</g>
<!-- edcee7b3&#45;44ed&#45;4f1e&#45;8ac2&#45;f5c2977007e0 -->
<g id="node11" class="node">
<title>edcee7b3&#45;44ed&#45;4f1e&#45;8ac2&#45;f5c2977007e0</title>
<polygon fill="yellow" stroke="black" points="2007.5,-36 1522.5,-36 1522.5,0 2007.5,0 2007.5,-36"/>
<text text-anchor="middle" x="1765" y="-14.3" font-family="Helvetica,sans-Serif" font-size="14.00">⋯ Run GitHub Actions for `MarketUtils/Holdings/ordersholdings.py`</text>
</g>
<!-- 1420dc01&#45;23f1&#45;40ba&#45;a9a1&#45;aef90f00f8c8&#45;&gt;edcee7b3&#45;44ed&#45;4f1e&#45;8ac2&#45;f5c2977007e0 -->
<g id="edge7" class="edge">
<title>1420dc01&#45;23f1&#45;40ba&#45;a9a1&#45;aef90f00f8c8&#45;&gt;edcee7b3&#45;44ed&#45;4f1e&#45;8ac2&#45;f5c2977007e0</title>
<path fill="none" stroke="black" stroke-dasharray="5,2" d="M1765,-72.72C1765,-64.27 1765,-54.89 1765,-46.36"/>
<polygon fill="black" stroke="black" points="1768.5,-46.15 1765,-36.15 1761.5,-46.15 1768.5,-46.15"/>
</g>
<!-- 4737d2fe&#45;ada1&#45;4406&#45;aa8c&#45;12bee5b98831&#45;&gt;end -->
<g id="edge11" class="edge">
<title>4737d2fe&#45;ada1&#45;4406&#45;aa8c&#45;12bee5b98831&#45;&gt;end</title>
<path fill="none" stroke="black" d="M2476.32,-99.87C2496.43,-99.87 2513.02,-99.87 2523.16,-99.87"/>
<polygon fill="black" stroke="black" points="2523.38,-103.37 2533.38,-99.87 2523.38,-96.37 2523.38,-103.37"/>
<text text-anchor="middle" x="2504.77" y="-106.67" font-family="Helvetica,sans-Serif" font-size="14.00">Finish</text>
</g>
<!-- d2b6fca9&#45;e685&#45;432b&#45;9ad5&#45;7a22b128c7c4 -->
<g id="node12" class="node">
<title>d2b6fca9&#45;e685&#45;432b&#45;9ad5&#45;7a22b128c7c4</title>
<polygon fill="white" stroke="black" points="2532,-36 2026,-36 2026,0 2532,0 2532,-36"/>
<text text-anchor="middle" x="2279" y="-14.3" font-family="Helvetica,sans-Serif" font-size="14.00">▶ Run GitHub Actions for `MarketUtils/Holdings/holdings_utils_test.py`</text>
</g>
<!-- 4737d2fe&#45;ada1&#45;4406&#45;aa8c&#45;12bee5b98831&#45;&gt;d2b6fca9&#45;e685&#45;432b&#45;9ad5&#45;7a22b128c7c4 -->
<g id="edge9" class="edge">
<title>4737d2fe&#45;ada1&#45;4406&#45;aa8c&#45;12bee5b98831&#45;&gt;d2b6fca9&#45;e685&#45;432b&#45;9ad5&#45;7a22b128c7c4</title>
<path fill="none" stroke="black" stroke-dasharray="5,2" d="M2262.19,-72.72C2264.89,-64.08 2267.9,-54.47 2270.61,-45.79"/>
<polygon fill="black" stroke="black" points="2273.99,-46.74 2273.63,-36.15 2267.31,-44.64 2273.99,-46.74"/>
</g>
</g>
</svg>
