<?xml version="1.0" encoding="UTF-8" standalone="no"?>
<!DOCTYPE svg PUBLIC "-//W3C//DTD SVG 1.1//EN"
 "http://www.w3.org/Graphics/SVG/1.1/DTD/svg11.dtd">
<!-- Generated by graphviz version 2.43.0 (0)
 -->
<!-- Title: %3 Pages: 1 -->
<svg width="581pt" height="238pt"
 viewBox="0.00 0.00 581.00 237.74" xmlns="http://www.w3.org/2000/svg" xmlns:xlink="http://www.w3.org/1999/xlink">
<g id="graph0" class="graph" transform="scale(1 1) rotate(0) translate(36 201.74)">
<title>%3</title>
<polygon fill="dimgray" stroke="transparent" points="-36,36 -36,-201.74 545,-201.74 545,36 -36,36"/>
<text text-anchor="middle" x="254.5" y="-150.54" font-family="Helvetica,sans-Serif" font-size="14.00">Sweep&#39;s Plan &amp; Progress</text>
<!-- start -->
<g id="node1" class="node">
<title>start</title>
</g>
<!-- 14d707ed&#45;e2a6&#45;4ae9&#45;837e&#45;018290f27cfd -->
<g id="node3" class="node">
<title>14d707ed&#45;e2a6&#45;4ae9&#45;837e&#45;018290f27cfd</title>
<ellipse fill="#0ee832" stroke="black" cx="251.5" cy="-99.87" rx="199.31" ry="26.74"/>
<text text-anchor="middle" x="251.5" y="-103.67" font-family="Helvetica,sans-Serif" font-size="14.00">✓ Modify</text>
<text text-anchor="middle" x="251.5" y="-88.67" font-family="Helvetica,sans-Serif" font-size="14.00">Brokers/BrokerUtils/broker_tax_calc.py</text>
</g>
<!-- start&#45;&gt;14d707ed&#45;e2a6&#45;4ae9&#45;837e&#45;018290f27cfd -->
<g id="edge2" class="edge">
<title>start&#45;&gt;14d707ed&#45;e2a6&#45;4ae9&#45;837e&#45;018290f27cfd</title>
<path fill="none" stroke="black" d="M1.22,-99.87C4.66,-99.87 20.19,-99.87 41.97,-99.87"/>
<polygon fill="black" stroke="black" points="42.02,-103.37 52.02,-99.87 42.02,-96.37 42.02,-103.37"/>
<text text-anchor="middle" x="26.55" y="-106.67" font-family="Helvetica,sans-Serif" font-size="14.00">Start</text>
</g>
<!-- end -->
<g id="node2" class="node">
<title>end</title>
</g>
<!-- 14d707ed&#45;e2a6&#45;4ae9&#45;837e&#45;018290f27cfd&#45;&gt;end -->
<g id="edge3" class="edge">
<title>14d707ed&#45;e2a6&#45;4ae9&#45;837e&#45;018290f27cfd&#45;&gt;end</title>
<path fill="none" stroke="black" d="M451.14,-99.87C470.97,-99.87 487.5,-99.87 497.65,-99.87"/>
<polygon fill="black" stroke="black" points="497.88,-103.37 507.88,-99.87 497.88,-96.37 497.88,-103.37"/>
<text text-anchor="middle" x="479.45" y="-106.67" font-family="Helvetica,sans-Serif" font-size="14.00">Finish</text>
</g>
<!-- 5091cc83&#45;f795&#45;4152&#45;8055&#45;474d5d83945d -->
<g id="node4" class="node">
<title>5091cc83&#45;f795&#45;4152&#45;8055&#45;474d5d83945d</title>
<polygon fill="yellow" stroke="black" points="490,-36 13,-36 13,0 490,0 490,-36"/>
<text text-anchor="middle" x="251.5" y="-14.3" font-family="Helvetica,sans-Serif" font-size="14.00">⋯ Run GitHub Actions for `Brokers/BrokerUtils/broker_tax_calc.py`</text>
</g>
<!-- 14d707ed&#45;e2a6&#45;4ae9&#45;837e&#45;018290f27cfd&#45;&gt;5091cc83&#45;f795&#45;4152&#45;8055&#45;474d5d83945d -->
<g id="edge1" class="edge">
<title>14d707ed&#45;e2a6&#45;4ae9&#45;837e&#45;018290f27cfd&#45;&gt;5091cc83&#45;f795&#45;4152&#45;8055&#45;474d5d83945d</title>
<path fill="none" stroke="black" stroke-dasharray="5,2" d="M251.5,-72.72C251.5,-64.27 251.5,-54.89 251.5,-46.36"/>
<polygon fill="black" stroke="black" points="255,-46.15 251.5,-36.15 248,-46.15 255,-46.15"/>
</g>
</g>
</svg>
