<?xml version="1.0" encoding="UTF-8" standalone="no"?>
<!DOCTYPE svg PUBLIC "-//W3C//DTD SVG 1.1//EN"
 "http://www.w3.org/Graphics/SVG/1.1/DTD/svg11.dtd">
<!-- Generated by graphviz version 2.43.0 (0)
 -->
<!-- Title: %3 Pages: 1 -->
<svg width="330pt" height="238pt"
 viewBox="0.00 0.00 330.00 237.74" xmlns="http://www.w3.org/2000/svg" xmlns:xlink="http://www.w3.org/1999/xlink">
<g id="graph0" class="graph" transform="scale(1 1) rotate(0) translate(36 201.74)">
<title>%3</title>
<polygon fill="dimgray" stroke="transparent" points="-36,36 -36,-201.74 294,-201.74 294,36 -36,36"/>
<text text-anchor="middle" x="129" y="-150.54" font-family="Helvetica,sans-Serif" font-size="14.00">Sweep&#39;s Plan &amp; Progress</text>
<!-- start -->
<g id="node1" class="node">
<title>start</title>
</g>
<!-- f5f7d715&#45;8f37&#45;4558&#45;b787&#45;df86761e94e5 -->
<g id="node3" class="node">
<title>f5f7d715&#45;8f37&#45;4558&#45;b787&#45;df86761e94e5</title>
<ellipse fill="#0ee832" stroke="black" cx="129" cy="-99.87" rx="55.72" ry="26.74"/>
<text text-anchor="middle" x="129" y="-103.67" font-family="Helvetica,sans-Serif" font-size="14.00">✓ Modify</text>
<text text-anchor="middle" x="129" y="-88.67" font-family="Helvetica,sans-Serif" font-size="14.00">trial.py</text>
</g>
<!-- start&#45;&gt;f5f7d715&#45;8f37&#45;4558&#45;b787&#45;df86761e94e5 -->
<g id="edge2" class="edge">
<title>start&#45;&gt;f5f7d715&#45;8f37&#45;4558&#45;b787&#45;df86761e94e5</title>
<path fill="none" stroke="black" d="M21.69,-99.87C25.33,-99.87 42.92,-99.87 62.83,-99.87"/>
<polygon fill="black" stroke="black" points="63.07,-103.37 73.07,-99.87 63.07,-96.37 63.07,-103.37"/>
<text text-anchor="middle" x="47.32" y="-106.67" font-family="Helvetica,sans-Serif" font-size="14.00">Start</text>
</g>
<!-- end -->
<g id="node2" class="node">
<title>end</title>
</g>
<!-- f5f7d715&#45;8f37&#45;4558&#45;b787&#45;df86761e94e5&#45;&gt;end -->
<g id="edge3" class="edge">
<title>f5f7d715&#45;8f37&#45;4558&#45;b787&#45;df86761e94e5&#45;&gt;end</title>
<path fill="none" stroke="black" d="M185,-99.87C202.96,-99.87 221.06,-99.87 232.15,-99.87"/>
<polygon fill="black" stroke="black" points="232.26,-103.37 242.26,-99.87 232.26,-96.37 232.26,-103.37"/>
<text text-anchor="middle" x="213.68" y="-106.67" font-family="Helvetica,sans-Serif" font-size="14.00">Finish</text>
</g>
<!-- ebd8c5aa&#45;052e&#45;4081&#45;826c&#45;5a13f992cd07 -->
<g id="node4" class="node">
<title>ebd8c5aa&#45;052e&#45;4081&#45;826c&#45;5a13f992cd07</title>
<polygon fill="#0ee832" stroke="black" points="258,-36 0,-36 0,0 258,0 258,-36"/>
<text text-anchor="middle" x="129" y="-14.3" font-family="Helvetica,sans-Serif" font-size="14.00">✓ Run GitHub Actions for `trial.py`</text>
</g>
<!-- f5f7d715&#45;8f37&#45;4558&#45;b787&#45;df86761e94e5&#45;&gt;ebd8c5aa&#45;052e&#45;4081&#45;826c&#45;5a13f992cd07 -->
<g id="edge1" class="edge">
<title>f5f7d715&#45;8f37&#45;4558&#45;b787&#45;df86761e94e5&#45;&gt;ebd8c5aa&#45;052e&#45;4081&#45;826c&#45;5a13f992cd07</title>
<path fill="none" stroke="black" stroke-dasharray="5,2" d="M129,-72.72C129,-64.27 129,-54.89 129,-46.36"/>
<polygon fill="black" stroke="black" points="132.5,-46.15 129,-36.15 125.5,-46.15 132.5,-46.15"/>
</g>
</g>
</svg>
