<?xml version="1.0" encoding="UTF-8" standalone="no"?>
<!DOCTYPE svg PUBLIC "-//W3C//DTD SVG 1.1//EN"
 "http://www.w3.org/Graphics/SVG/1.1/DTD/svg11.dtd">
<!-- Generated by graphviz version 2.43.0 (0)
 -->
<!-- Title: %3 Pages: 1 -->
<svg width="525pt" height="165pt"
 viewBox="0.00 0.00 525.00 164.74" xmlns="http://www.w3.org/2000/svg" xmlns:xlink="http://www.w3.org/1999/xlink">
<g id="graph0" class="graph" transform="scale(1 1) rotate(0) translate(36 128.74)">
<title>%3</title>
<polygon fill="dimgray" stroke="transparent" points="-36,36 -36,-128.74 489,-128.74 489,36 -36,36"/>
<text text-anchor="middle" x="226.5" y="-77.54" font-family="Helvetica,sans-Serif" font-size="14.00">Sweep&#39;s Plan &amp; Progress</text>
<!-- start -->
<g id="node1" class="node">
<title>start</title>
</g>
<!-- c7fea92b&#45;e5e4&#45;4654&#45;b82c&#45;346aa4ac5e68 -->
<g id="node3" class="node">
<title>c7fea92b&#45;e5e4&#45;4654&#45;b82c&#45;346aa4ac5e68</title>
<ellipse fill="yellow" stroke="black" cx="223.5" cy="-26.87" rx="171.24" ry="26.74"/>
<text text-anchor="middle" x="223.5" y="-30.67" font-family="Helvetica,sans-Serif" font-size="14.00">⋯ Create</text>
<text text-anchor="middle" x="223.5" y="-15.67" font-family="Helvetica,sans-Serif" font-size="14.00">Brokers/test_place_order_calc.py</text>
</g>
<!-- start&#45;&gt;c7fea92b&#45;e5e4&#45;4654&#45;b82c&#45;346aa4ac5e68 -->
<g id="edge1" class="edge">
<title>start&#45;&gt;c7fea92b&#45;e5e4&#45;4654&#45;b82c&#45;346aa4ac5e68</title>
<path fill="none" stroke="black" d="M1.14,-26.87C4.44,-26.87 20.27,-26.87 42.09,-26.87"/>
<polygon fill="black" stroke="black" points="42.14,-30.37 52.14,-26.87 42.14,-23.37 42.14,-30.37"/>
<text text-anchor="middle" x="26.69" y="-33.67" font-family="Helvetica,sans-Serif" font-size="14.00">Start</text>
</g>
<!-- end -->
<g id="node2" class="node">
<title>end</title>
</g>
<!-- c7fea92b&#45;e5e4&#45;4654&#45;b82c&#45;346aa4ac5e68&#45;&gt;end -->
<g id="edge2" class="edge">
<title>c7fea92b&#45;e5e4&#45;4654&#45;b82c&#45;346aa4ac5e68&#45;&gt;end</title>
<path fill="none" stroke="black" d="M394.71,-26.87C414.65,-26.87 431.52,-26.87 441.79,-26.87"/>
<polygon fill="black" stroke="black" points="441.86,-30.37 451.86,-26.87 441.86,-23.37 441.86,-30.37"/>
<text text-anchor="middle" x="423.31" y="-33.67" font-family="Helvetica,sans-Serif" font-size="14.00">Finish</text>
</g>
</g>
</svg>
