<?xml version="1.0" encoding="UTF-8" standalone="no"?>
<!DOCTYPE svg PUBLIC "-//W3C//DTD SVG 1.1//EN"
 "http://www.w3.org/Graphics/SVG/1.1/DTD/svg11.dtd">
<!-- Generated by graphviz version 2.43.0 (0)
 -->
<!-- Title: %3 Pages: 1 -->
<svg width="1060pt" height="238pt"
 viewBox="0.00 0.00 1060.00 237.74" xmlns="http://www.w3.org/2000/svg" xmlns:xlink="http://www.w3.org/1999/xlink">
<g id="graph0" class="graph" transform="scale(1 1) rotate(0) translate(36 201.74)">
<title>%3</title>
<polygon fill="dimgray" stroke="transparent" points="-36,36 -36,-201.74 1024,-201.74 1024,36 -36,36"/>
<text text-anchor="middle" x="494" y="-150.54" font-family="Helvetica,sans-Serif" font-size="14.00">Sweep&#39;s Plan &amp; Progress</text>
<!-- start -->
<g id="node1" class="node">
<title>start</title>
</g>
<!-- 6807b038&#45;dec7&#45;46b4&#45;8c16&#45;d19dc9470f6a -->
<g id="node3" class="node">
<title>6807b038&#45;dec7&#45;46b4&#45;8c16&#45;d19dc9470f6a</title>
<ellipse fill="#0ee832" stroke="black" cx="259.5" cy="-99.87" rx="188.18" ry="26.74"/>
<text text-anchor="middle" x="259.5" y="-103.67" font-family="Helvetica,sans-Serif" font-size="14.00">✓ Modify</text>
<text text-anchor="middle" x="259.5" y="-88.67" font-family="Helvetica,sans-Serif" font-size="14.00">MarketUtils/Calculations/qty_calc.py</text>
</g>
<!-- start&#45;&gt;6807b038&#45;dec7&#45;46b4&#45;8c16&#45;d19dc9470f6a -->
<g id="edge4" class="edge">
<title>start&#45;&gt;6807b038&#45;dec7&#45;46b4&#45;8c16&#45;d19dc9470f6a</title>
<path fill="none" stroke="black" d="M20.19,-99.87C23.59,-99.87 39.31,-99.87 61.21,-99.87"/>
<polygon fill="black" stroke="black" points="61.32,-103.37 71.32,-99.87 61.32,-96.37 61.32,-103.37"/>
<text text-anchor="middle" x="45.7" y="-106.67" font-family="Helvetica,sans-Serif" font-size="14.00">Start</text>
</g>
<!-- end -->
<g id="node2" class="node">
<title>end</title>
</g>
<!-- 092e952d&#45;3bc0&#45;4f9a&#45;a288&#45;444b87a6fe28 -->
<g id="node4" class="node">
<title>092e952d&#45;3bc0&#45;4f9a&#45;a288&#45;444b87a6fe28</title>
<ellipse fill="white" stroke="black" cx="713.5" cy="-99.87" rx="215.84" ry="26.74"/>
<text text-anchor="middle" x="713.5" y="-103.67" font-family="Helvetica,sans-Serif" font-size="14.00">▶ Modify</text>
<text text-anchor="middle" x="713.5" y="-88.67" font-family="Helvetica,sans-Serif" font-size="14.00">MarketUtils/Calculations/taxcalculation.py</text>
</g>
<!-- 6807b038&#45;dec7&#45;46b4&#45;8c16&#45;d19dc9470f6a&#45;&gt;092e952d&#45;3bc0&#45;4f9a&#45;a288&#45;444b87a6fe28 -->
<g id="edge2" class="edge">
<title>6807b038&#45;dec7&#45;46b4&#45;8c16&#45;d19dc9470f6a&#45;&gt;092e952d&#45;3bc0&#45;4f9a&#45;a288&#45;444b87a6fe28</title>
<path fill="none" stroke="black" d="M447.93,-99.87C461.15,-99.87 474.38,-99.87 487.61,-99.87"/>
<polygon fill="black" stroke="black" points="487.72,-103.37 497.72,-99.87 487.72,-96.37 487.72,-103.37"/>
</g>
<!-- 2c077dfd&#45;3afb&#45;4247&#45;a21b&#45;8d68d3b83b5c -->
<g id="node5" class="node">
<title>2c077dfd&#45;3afb&#45;4247&#45;a21b&#45;8d68d3b83b5c</title>
<polygon fill="yellow" stroke="black" points="461,-36 0,-36 0,0 461,0 461,-36"/>
<text text-anchor="middle" x="230.5" y="-14.3" font-family="Helvetica,sans-Serif" font-size="14.00">⋯ Run GitHub Actions for `MarketUtils/Calculations/qty_calc.py`</text>
</g>
<!-- 6807b038&#45;dec7&#45;46b4&#45;8c16&#45;d19dc9470f6a&#45;&gt;2c077dfd&#45;3afb&#45;4247&#45;a21b&#45;8d68d3b83b5c -->
<g id="edge1" class="edge">
<title>6807b038&#45;dec7&#45;46b4&#45;8c16&#45;d19dc9470f6a&#45;&gt;2c077dfd&#45;3afb&#45;4247&#45;a21b&#45;8d68d3b83b5c</title>
<path fill="none" stroke="black" stroke-dasharray="5,2" d="M250,-72.72C246.87,-64.08 243.38,-54.47 240.23,-45.79"/>
<polygon fill="black" stroke="black" points="243.43,-44.35 236.73,-36.15 236.85,-46.74 243.43,-44.35"/>
</g>
<!-- 092e952d&#45;3bc0&#45;4f9a&#45;a288&#45;444b87a6fe28&#45;&gt;end -->
<g id="edge5" class="edge">
<title>092e952d&#45;3bc0&#45;4f9a&#45;a288&#45;444b87a6fe28&#45;&gt;end</title>
<path fill="none" stroke="black" d="M929.39,-99.87C949.59,-99.87 966.31,-99.87 976.56,-99.87"/>
<polygon fill="black" stroke="black" points="976.88,-103.37 986.88,-99.87 976.88,-96.37 976.88,-103.37"/>
<text text-anchor="middle" x="958.08" y="-106.67" font-family="Helvetica,sans-Serif" font-size="14.00">Finish</text>
</g>
<!-- 6e4cbcf6&#45;8508&#45;4f5c&#45;a69f&#45;2cf03fe28fea -->
<g id="node6" class="node">
<title>6e4cbcf6&#45;8508&#45;4f5c&#45;a69f&#45;2cf03fe28fea</title>
<polygon fill="white" stroke="black" points="976,-36 479,-36 479,0 976,0 976,-36"/>
<text text-anchor="middle" x="727.5" y="-14.3" font-family="Helvetica,sans-Serif" font-size="14.00">▶ Run GitHub Actions for `MarketUtils/Calculations/taxcalculation.py`</text>
</g>
<!-- 092e952d&#45;3bc0&#45;4f9a&#45;a288&#45;444b87a6fe28&#45;&gt;6e4cbcf6&#45;8508&#45;4f5c&#45;a69f&#45;2cf03fe28fea -->
<g id="edge3" class="edge">
<title>092e952d&#45;3bc0&#45;4f9a&#45;a288&#45;444b87a6fe28&#45;&gt;6e4cbcf6&#45;8508&#45;4f5c&#45;a69f&#45;2cf03fe28fea</title>
<path fill="none" stroke="black" stroke-dasharray="5,2" d="M718.08,-72.72C719.58,-64.18 721.25,-54.68 722.75,-46.08"/>
<polygon fill="black" stroke="black" points="726.22,-46.6 724.49,-36.15 719.32,-45.39 726.22,-46.6"/>
</g>
</g>
</svg>
