<?xml version="1.0" encoding="UTF-8" standalone="no"?>
<!DOCTYPE svg PUBLIC "-//W3C//DTD SVG 1.1//EN"
 "http://www.w3.org/Graphics/SVG/1.1/DTD/svg11.dtd">
<!-- Generated by graphviz version 2.43.0 (0)
 -->
<!-- Title: %3 Pages: 1 -->
<svg width="2599pt" height="238pt"
 viewBox="0.00 0.00 2599.00 237.74" xmlns="http://www.w3.org/2000/svg" xmlns:xlink="http://www.w3.org/1999/xlink">
<g id="graph0" class="graph" transform="scale(1 1) rotate(0) translate(36 201.74)">
<title>%3</title>
<polygon fill="dimgray" stroke="transparent" points="-36,36 -36,-201.74 2563,-201.74 2563,36 -36,36"/>
<text text-anchor="middle" x="1263.5" y="-150.54" font-family="Helvetica,sans-Serif" font-size="14.00">Sweep&#39;s Plan &amp; Progress</text>
<!-- start -->
<g id="node1" class="node">
<title>start</title>
</g>
<!-- d8c123d7&#45;6816&#45;4f46&#45;97c8&#45;29e5b9416f43 -->
<g id="node3" class="node">
<title>d8c123d7&#45;6816&#45;4f46&#45;97c8&#45;29e5b9416f43</title>
<ellipse fill="yellow" stroke="black" cx="263.5" cy="-99.87" rx="198.89" ry="26.74"/>
<text text-anchor="middle" x="263.5" y="-103.67" font-family="Helvetica,sans-Serif" font-size="14.00">⋯ Create</text>
<text text-anchor="middle" x="263.5" y="-88.67" font-family="Helvetica,sans-Serif" font-size="14.00">MarketUtils/Holdings/holdings_utils.py</text>
</g>
<!-- start&#45;&gt;d8c123d7&#45;6816&#45;4f46&#45;97c8&#45;29e5b9416f43 -->
<g id="edge10" class="edge">
<title>start&#45;&gt;d8c123d7&#45;6816&#45;4f46&#45;97c8&#45;29e5b9416f43</title>
<path fill="none" stroke="black" d="M13.22,-99.87C16.69,-99.87 32.42,-99.87 54.44,-99.87"/>
<polygon fill="black" stroke="black" points="54.61,-103.37 64.61,-99.87 54.61,-96.37 54.61,-103.37"/>
<text text-anchor="middle" x="38.9" y="-106.67" font-family="Helvetica,sans-Serif" font-size="14.00">Start</text>
</g>
<!-- end -->
<g id="node2" class="node">
<title>end</title>
</g>
<!-- 5cf86710&#45;1c1b&#45;4ebd&#45;b240&#45;e4f3de1c844a -->
<g id="node4" class="node">
<title>5cf86710&#45;1c1b&#45;4ebd&#45;b240&#45;e4f3de1c844a</title>
<ellipse fill="white" stroke="black" cx="737.5" cy="-99.87" rx="212.68" ry="26.74"/>
<text text-anchor="middle" x="737.5" y="-103.67" font-family="Helvetica,sans-Serif" font-size="14.00">▶ Modify</text>
<text text-anchor="middle" x="737.5" y="-88.67" font-family="Helvetica,sans-Serif" font-size="14.00">MarketUtils/Holdings/zerodhaholdings.py</text>
</g>
<!-- d8c123d7&#45;6816&#45;4f46&#45;97c8&#45;29e5b9416f43&#45;&gt;5cf86710&#45;1c1b&#45;4ebd&#45;b240&#45;e4f3de1c844a -->
<g id="edge2" class="edge">
<title>d8c123d7&#45;6816&#45;4f46&#45;97c8&#45;29e5b9416f43&#45;&gt;5cf86710&#45;1c1b&#45;4ebd&#45;b240&#45;e4f3de1c844a</title>
<path fill="none" stroke="black" d="M462.54,-99.87C479.83,-99.87 497.11,-99.87 514.39,-99.87"/>
<polygon fill="black" stroke="black" points="514.57,-103.37 524.57,-99.87 514.57,-96.37 514.57,-103.37"/>
</g>
<!-- 2406054e&#45;18f6&#45;4b87&#45;87b7&#45;659f0fc6b166 -->
<g id="node8" class="node">
<title>2406054e&#45;18f6&#45;4b87&#45;87b7&#45;659f0fc6b166</title>
<polygon fill="white" stroke="black" points="473,-36 0,-36 0,0 473,0 473,-36"/>
<text text-anchor="middle" x="236.5" y="-14.3" font-family="Helvetica,sans-Serif" font-size="14.00">▶ Run GitHub Actions for `MarketUtils/Holdings/holdings_utils.py`</text>
</g>
<!-- d8c123d7&#45;6816&#45;4f46&#45;97c8&#45;29e5b9416f43&#45;&gt;2406054e&#45;18f6&#45;4b87&#45;87b7&#45;659f0fc6b166 -->
<g id="edge1" class="edge">
<title>d8c123d7&#45;6816&#45;4f46&#45;97c8&#45;29e5b9416f43&#45;&gt;2406054e&#45;18f6&#45;4b87&#45;87b7&#45;659f0fc6b166</title>
<path fill="none" stroke="black" stroke-dasharray="5,2" d="M254.66,-72.72C251.74,-64.08 248.49,-54.47 245.56,-45.79"/>
<polygon fill="black" stroke="black" points="248.81,-44.5 242.3,-36.15 242.18,-46.74 248.81,-44.5"/>
</g>
<!-- 78a7cf57&#45;264d&#45;4db3&#45;82cb&#45;bf229ab1f5e1 -->
<g id="node5" class="node">
<title>78a7cf57&#45;264d&#45;4db3&#45;82cb&#45;bf229ab1f5e1</title>
<ellipse fill="white" stroke="black" cx="1250.5" cy="-99.87" rx="217.16" ry="26.74"/>
<text text-anchor="middle" x="1250.5" y="-103.67" font-family="Helvetica,sans-Serif" font-size="14.00">▶ Modify</text>
<text text-anchor="middle" x="1250.5" y="-88.67" font-family="Helvetica,sans-Serif" font-size="14.00">MarketUtils/Holdings/aliceblueholdings.py</text>
</g>
<!-- 5cf86710&#45;1c1b&#45;4ebd&#45;b240&#45;e4f3de1c844a&#45;&gt;78a7cf57&#45;264d&#45;4db3&#45;82cb&#45;bf229ab1f5e1 -->
<g id="edge4" class="edge">
<title>5cf86710&#45;1c1b&#45;4ebd&#45;b240&#45;e4f3de1c844a&#45;&gt;78a7cf57&#45;264d&#45;4db3&#45;82cb&#45;bf229ab1f5e1</title>
<path fill="none" stroke="black" d="M950.42,-99.87C974.71,-99.87 999.01,-99.87 1023.31,-99.87"/>
<polygon fill="black" stroke="black" points="1023.35,-103.37 1033.35,-99.87 1023.35,-96.37 1023.35,-103.37"/>
</g>
<!-- 0c259743&#45;9370&#45;4abd&#45;9fed&#45;587e311aab40 -->
<g id="node9" class="node">
<title>0c259743&#45;9370&#45;4abd&#45;9fed&#45;587e311aab40</title>
<polygon fill="white" stroke="black" points="983.5,-36 491.5,-36 491.5,0 983.5,0 983.5,-36"/>
<text text-anchor="middle" x="737.5" y="-14.3" font-family="Helvetica,sans-Serif" font-size="14.00">▶ Run GitHub Actions for `MarketUtils/Holdings/zerodhaholdings.py`</text>
</g>
<!-- 5cf86710&#45;1c1b&#45;4ebd&#45;b240&#45;e4f3de1c844a&#45;&gt;0c259743&#45;9370&#45;4abd&#45;9fed&#45;587e311aab40 -->
<g id="edge3" class="edge">
<title>5cf86710&#45;1c1b&#45;4ebd&#45;b240&#45;e4f3de1c844a&#45;&gt;0c259743&#45;9370&#45;4abd&#45;9fed&#45;587e311aab40</title>
<path fill="none" stroke="black" stroke-dasharray="5,2" d="M737.5,-72.72C737.5,-64.27 737.5,-54.89 737.5,-46.36"/>
<polygon fill="black" stroke="black" points="741,-46.15 737.5,-36.15 734,-46.15 741,-46.15"/>
</g>
<!-- 1420dc01&#45;23f1&#45;40ba&#45;a9a1&#45;aef90f00f8c8 -->
<g id="node6" class="node">
<title>1420dc01&#45;23f1&#45;40ba&#45;a9a1&#45;aef90f00f8c8</title>
<ellipse fill="white" stroke="black" cx="1758.5" cy="-99.87" rx="205.12" ry="26.74"/>
<text text-anchor="middle" x="1758.5" y="-103.67" font-family="Helvetica,sans-Serif" font-size="14.00">▶ Modify</text>
<text text-anchor="middle" x="1758.5" y="-88.67" font-family="Helvetica,sans-Serif" font-size="14.00">MarketUtils/Holdings/ordersholdings.py</text>
</g>
<!-- 78a7cf57&#45;264d&#45;4db3&#45;82cb&#45;bf229ab1f5e1&#45;&gt;1420dc01&#45;23f1&#45;40ba&#45;a9a1&#45;aef90f00f8c8 -->
<g id="edge6" class="edge">
<title>78a7cf57&#45;264d&#45;4db3&#45;82cb&#45;bf229ab1f5e1&#45;&gt;1420dc01&#45;23f1&#45;40ba&#45;a9a1&#45;aef90f00f8c8</title>
<path fill="none" stroke="black" d="M1467.79,-99.87C1492.94,-99.87 1518.08,-99.87 1543.23,-99.87"/>
<polygon fill="black" stroke="black" points="1543.24,-103.37 1553.24,-99.87 1543.24,-96.37 1543.24,-103.37"/>
</g>
<!-- 0cadf928&#45;0a07&#45;4482&#45;a04d&#45;8116b97ab443 -->
<g id="node10" class="node">
<title>0cadf928&#45;0a07&#45;4482&#45;a04d&#45;8116b97ab443</title>
<polygon fill="white" stroke="black" points="1499.5,-36 1001.5,-36 1001.5,0 1499.5,0 1499.5,-36"/>
<text text-anchor="middle" x="1250.5" y="-14.3" font-family="Helvetica,sans-Serif" font-size="14.00">▶ Run GitHub Actions for `MarketUtils/Holdings/aliceblueholdings.py`</text>
</g>
<!-- 78a7cf57&#45;264d&#45;4db3&#45;82cb&#45;bf229ab1f5e1&#45;&gt;0cadf928&#45;0a07&#45;4482&#45;a04d&#45;8116b97ab443 -->
<g id="edge5" class="edge">
<title>78a7cf57&#45;264d&#45;4db3&#45;82cb&#45;bf229ab1f5e1&#45;&gt;0cadf928&#45;0a07&#45;4482&#45;a04d&#45;8116b97ab443</title>
<path fill="none" stroke="black" stroke-dasharray="5,2" d="M1250.5,-72.72C1250.5,-64.27 1250.5,-54.89 1250.5,-46.36"/>
<polygon fill="black" stroke="black" points="1254,-46.15 1250.5,-36.15 1247,-46.15 1254,-46.15"/>
</g>
<!-- 4737d2fe&#45;ada1&#45;4406&#45;aa8c&#45;12bee5b98831 -->
<g id="node7" class="node">
<title>4737d2fe&#45;ada1&#45;4406&#45;aa8c&#45;12bee5b98831</title>
<ellipse fill="white" stroke="black" cx="2246.5" cy="-99.87" rx="222.06" ry="26.74"/>
<text text-anchor="middle" x="2246.5" y="-103.67" font-family="Helvetica,sans-Serif" font-size="14.00">▶ Create</text>
<text text-anchor="middle" x="2246.5" y="-88.67" font-family="Helvetica,sans-Serif" font-size="14.00">MarketUtils/Holdings/holdings_utils_test.py</text>
</g>
<!-- 1420dc01&#45;23f1&#45;40ba&#45;a9a1&#45;aef90f00f8c8&#45;&gt;4737d2fe&#45;ada1&#45;4406&#45;aa8c&#45;12bee5b98831 -->
<g id="edge8" class="edge">
<title>1420dc01&#45;23f1&#45;40ba&#45;a9a1&#45;aef90f00f8c8&#45;&gt;4737d2fe&#45;ada1&#45;4406&#45;aa8c&#45;12bee5b98831</title>
<path fill="none" stroke="black" d="M1963.9,-99.87C1980.58,-99.87 1997.27,-99.87 2013.95,-99.87"/>
<polygon fill="black" stroke="black" points="2014.34,-103.37 2024.34,-99.87 2014.34,-96.37 2014.34,-103.37"/>
</g>
<!-- edcee7b3&#45;44ed&#45;4f1e&#45;8ac2&#45;f5c2977007e0 -->
<g id="node11" class="node">
<title>edcee7b3&#45;44ed&#45;4f1e&#45;8ac2&#45;f5c2977007e0</title>
<polygon fill="white" stroke="black" points="1999,-36 1518,-36 1518,0 1999,0 1999,-36"/>
<text text-anchor="middle" x="1758.5" y="-14.3" font-family="Helvetica,sans-Serif" font-size="14.00">▶ Run GitHub Actions for `MarketUtils/Holdings/ordersholdings.py`</text>
</g>
<!-- 1420dc01&#45;23f1&#45;40ba&#45;a9a1&#45;aef90f00f8c8&#45;&gt;edcee7b3&#45;44ed&#45;4f1e&#45;8ac2&#45;f5c2977007e0 -->
<g id="edge7" class="edge">
<title>1420dc01&#45;23f1&#45;40ba&#45;a9a1&#45;aef90f00f8c8&#45;&gt;edcee7b3&#45;44ed&#45;4f1e&#45;8ac2&#45;f5c2977007e0</title>
<path fill="none" stroke="black" stroke-dasharray="5,2" d="M1758.5,-72.72C1758.5,-64.27 1758.5,-54.89 1758.5,-46.36"/>
<polygon fill="black" stroke="black" points="1762,-46.15 1758.5,-36.15 1755,-46.15 1762,-46.15"/>
</g>
<!-- 4737d2fe&#45;ada1&#45;4406&#45;aa8c&#45;12bee5b98831&#45;&gt;end -->
<g id="edge11" class="edge">
<title>4737d2fe&#45;ada1&#45;4406&#45;aa8c&#45;12bee5b98831&#45;&gt;end</title>
<path fill="none" stroke="black" d="M2468.82,-99.87C2488.93,-99.87 2505.52,-99.87 2515.66,-99.87"/>
<polygon fill="black" stroke="black" points="2515.88,-103.37 2525.88,-99.87 2515.88,-96.37 2515.88,-103.37"/>
<text text-anchor="middle" x="2497.27" y="-106.67" font-family="Helvetica,sans-Serif" font-size="14.00">Finish</text>
</g>
<!-- d2b6fca9&#45;e685&#45;432b&#45;9ad5&#45;7a22b128c7c4 -->
<g id="node12" class="node">
<title>d2b6fca9&#45;e685&#45;432b&#45;9ad5&#45;7a22b128c7c4</title>
<polygon fill="white" stroke="black" points="2523.5,-36 2017.5,-36 2017.5,0 2523.5,0 2523.5,-36"/>
<text text-anchor="middle" x="2270.5" y="-14.3" font-family="Helvetica,sans-Serif" font-size="14.00">▶ Run GitHub Actions for `MarketUtils/Holdings/holdings_utils_test.py`</text>
</g>
<!-- 4737d2fe&#45;ada1&#45;4406&#45;aa8c&#45;12bee5b98831&#45;&gt;d2b6fca9&#45;e685&#45;432b&#45;9ad5&#45;7a22b128c7c4 -->
<g id="edge9" class="edge">
<title>4737d2fe&#45;ada1&#45;4406&#45;aa8c&#45;12bee5b98831&#45;&gt;d2b6fca9&#45;e685&#45;432b&#45;9ad5&#45;7a22b128c7c4</title>
<path fill="none" stroke="black" stroke-dasharray="5,2" d="M2254.36,-72.72C2256.95,-64.08 2259.84,-54.47 2262.45,-45.79"/>
<polygon fill="black" stroke="black" points="2265.82,-46.73 2265.35,-36.15 2259.12,-44.72 2265.82,-46.73"/>
</g>
</g>
</svg>
