<?xml version="1.0" encoding="UTF-8" standalone="no"?>
<!DOCTYPE svg PUBLIC "-//W3C//DTD SVG 1.1//EN"
 "http://www.w3.org/Graphics/SVG/1.1/DTD/svg11.dtd">
<!-- Generated by graphviz version 2.43.0 (0)
 -->
<!-- Title: %3 Pages: 1 -->
<svg width="1058pt" height="238pt"
 viewBox="0.00 0.00 1057.50 237.74" xmlns="http://www.w3.org/2000/svg" xmlns:xlink="http://www.w3.org/1999/xlink">
<g id="graph0" class="graph" transform="scale(1 1) rotate(0) translate(36 201.74)">
<title>%3</title>
<polygon fill="dimgray" stroke="transparent" points="-36,36 -36,-201.74 1021.5,-201.74 1021.5,36 -36,36"/>
<text text-anchor="middle" x="492.75" y="-150.54" font-family="Helvetica,sans-Serif" font-size="14.00">Sweep&#39;s Plan &amp; Progress</text>
<!-- start -->
<g id="node1" class="node">
<title>start</title>
</g>
<!-- 6807b038&#45;dec7&#45;46b4&#45;8c16&#45;d19dc9470f6a -->
<g id="node3" class="node">
<title>6807b038&#45;dec7&#45;46b4&#45;8c16&#45;d19dc9470f6a</title>
<ellipse fill="#0ee832" stroke="black" cx="257" cy="-99.87" rx="188.18" ry="26.74"/>
<text text-anchor="middle" x="257" y="-103.67" font-family="Helvetica,sans-Serif" font-size="14.00">✓ Modify</text>
<text text-anchor="middle" x="257" y="-88.67" font-family="Helvetica,sans-Serif" font-size="14.00">MarketUtils/Calculations/qty_calc.py</text>
</g>
<!-- start&#45;&gt;6807b038&#45;dec7&#45;46b4&#45;8c16&#45;d19dc9470f6a -->
<g id="edge4" class="edge">
<title>start&#45;&gt;6807b038&#45;dec7&#45;46b4&#45;8c16&#45;d19dc9470f6a</title>
<path fill="none" stroke="black" d="M17.69,-99.87C21.09,-99.87 36.81,-99.87 58.71,-99.87"/>
<polygon fill="black" stroke="black" points="58.82,-103.37 68.82,-99.87 58.82,-96.37 58.82,-103.37"/>
<text text-anchor="middle" x="43.2" y="-106.67" font-family="Helvetica,sans-Serif" font-size="14.00">Start</text>
</g>
<!-- end -->
<g id="node2" class="node">
<title>end</title>
</g>
<!-- 092e952d&#45;3bc0&#45;4f9a&#45;a288&#45;444b87a6fe28 -->
<g id="node4" class="node">
<title>092e952d&#45;3bc0&#45;4f9a&#45;a288&#45;444b87a6fe28</title>
<ellipse fill="white" stroke="black" cx="711" cy="-99.87" rx="215.84" ry="26.74"/>
<text text-anchor="middle" x="711" y="-103.67" font-family="Helvetica,sans-Serif" font-size="14.00">▶ Modify</text>
<text text-anchor="middle" x="711" y="-88.67" font-family="Helvetica,sans-Serif" font-size="14.00">MarketUtils/Calculations/taxcalculation.py</text>
</g>
<!-- 6807b038&#45;dec7&#45;46b4&#45;8c16&#45;d19dc9470f6a&#45;&gt;092e952d&#45;3bc0&#45;4f9a&#45;a288&#45;444b87a6fe28 -->
<g id="edge2" class="edge">
<title>6807b038&#45;dec7&#45;46b4&#45;8c16&#45;d19dc9470f6a&#45;&gt;092e952d&#45;3bc0&#45;4f9a&#45;a288&#45;444b87a6fe28</title>
<path fill="none" stroke="black" d="M445.43,-99.87C458.65,-99.87 471.88,-99.87 485.11,-99.87"/>
<polygon fill="black" stroke="black" points="485.22,-103.37 495.22,-99.87 485.22,-96.37 485.22,-103.37"/>
</g>
<!-- 2c077dfd&#45;3afb&#45;4247&#45;a21b&#45;8d68d3b83b5c -->
<g id="node5" class="node">
<title>2c077dfd&#45;3afb&#45;4247&#45;a21b&#45;8d68d3b83b5c</title>
<polygon fill="#0ee832" stroke="black" points="458,-36 0,-36 0,0 458,0 458,-36"/>
<text text-anchor="middle" x="229" y="-14.3" font-family="Helvetica,sans-Serif" font-size="14.00">✓ Run GitHub Actions for `MarketUtils/Calculations/qty_calc.py`</text>
</g>
<!-- 6807b038&#45;dec7&#45;46b4&#45;8c16&#45;d19dc9470f6a&#45;&gt;2c077dfd&#45;3afb&#45;4247&#45;a21b&#45;8d68d3b83b5c -->
<g id="edge1" class="edge">
<title>6807b038&#45;dec7&#45;46b4&#45;8c16&#45;d19dc9470f6a&#45;&gt;2c077dfd&#45;3afb&#45;4247&#45;a21b&#45;8d68d3b83b5c</title>
<path fill="none" stroke="black" stroke-dasharray="5,2" d="M247.83,-72.72C244.81,-64.08 241.44,-54.47 238.39,-45.79"/>
<polygon fill="black" stroke="black" points="241.62,-44.43 235.01,-36.15 235.02,-46.74 241.62,-44.43"/>
</g>
<!-- 092e952d&#45;3bc0&#45;4f9a&#45;a288&#45;444b87a6fe28&#45;&gt;end -->
<g id="edge5" class="edge">
<title>092e952d&#45;3bc0&#45;4f9a&#45;a288&#45;444b87a6fe28&#45;&gt;end</title>
<path fill="none" stroke="black" d="M926.89,-99.87C947.09,-99.87 963.81,-99.87 974.06,-99.87"/>
<polygon fill="black" stroke="black" points="974.38,-103.37 984.38,-99.87 974.38,-96.37 974.38,-103.37"/>
<text text-anchor="middle" x="955.58" y="-106.67" font-family="Helvetica,sans-Serif" font-size="14.00">Finish</text>
</g>
<!-- 6e4cbcf6&#45;8508&#45;4f5c&#45;a69f&#45;2cf03fe28fea -->
<g id="node6" class="node">
<title>6e4cbcf6&#45;8508&#45;4f5c&#45;a69f&#45;2cf03fe28fea</title>
<polygon fill="white" stroke="black" points="973.5,-36 476.5,-36 476.5,0 973.5,0 973.5,-36"/>
<text text-anchor="middle" x="725" y="-14.3" font-family="Helvetica,sans-Serif" font-size="14.00">▶ Run GitHub Actions for `MarketUtils/Calculations/taxcalculation.py`</text>
</g>
<!-- 092e952d&#45;3bc0&#45;4f9a&#45;a288&#45;444b87a6fe28&#45;&gt;6e4cbcf6&#45;8508&#45;4f5c&#45;a69f&#45;2cf03fe28fea -->
<g id="edge3" class="edge">
<title>092e952d&#45;3bc0&#45;4f9a&#45;a288&#45;444b87a6fe28&#45;&gt;6e4cbcf6&#45;8508&#45;4f5c&#45;a69f&#45;2cf03fe28fea</title>
<path fill="none" stroke="black" stroke-dasharray="5,2" d="M715.58,-72.72C717.08,-64.18 718.75,-54.68 720.25,-46.08"/>
<polygon fill="black" stroke="black" points="723.72,-46.6 721.99,-36.15 716.82,-45.39 723.72,-46.6"/>
</g>
</g>
</svg>
