<?xml version="1.0" encoding="UTF-8" standalone="no"?>
<!DOCTYPE svg PUBLIC "-//W3C//DTD SVG 1.1//EN"
 "http://www.w3.org/Graphics/SVG/1.1/DTD/svg11.dtd">
<!-- Generated by graphviz version 2.43.0 (0)
 -->
<!-- Title: %3 Pages: 1 -->
<svg width="1006pt" height="238pt"
 viewBox="0.00 0.00 1005.50 237.74" xmlns="http://www.w3.org/2000/svg" xmlns:xlink="http://www.w3.org/1999/xlink">
<g id="graph0" class="graph" transform="scale(1 1) rotate(0) translate(36 201.74)">
<title>%3</title>
<polygon fill="dimgray" stroke="transparent" points="-36,36 -36,-201.74 969.5,-201.74 969.5,36 -36,36"/>
<text text-anchor="middle" x="466.75" y="-150.54" font-family="Helvetica,sans-Serif" font-size="14.00">Sweep&#39;s Plan &amp; Progress</text>
<!-- start -->
<g id="node1" class="node">
<title>start</title>
</g>
<!-- ed4fc3c7&#45;771c&#45;4080&#45;8e2a&#45;028a8eee27a9 -->
<g id="node3" class="node">
<title>ed4fc3c7&#45;771c&#45;4080&#45;8e2a&#45;028a8eee27a9</title>
<ellipse fill="#0ee832" stroke="black" cx="252" cy="-99.87" rx="171.65" ry="26.74"/>
<text text-anchor="middle" x="252" y="-103.67" font-family="Helvetica,sans-Serif" font-size="14.00">✓ Create</text>
<text text-anchor="middle" x="252" y="-88.67" font-family="Helvetica,sans-Serif" font-size="14.00">Brokers/BrokerUtils/constants.py</text>
</g>
<!-- start&#45;&gt;ed4fc3c7&#45;771c&#45;4080&#45;8e2a&#45;028a8eee27a9 -->
<g id="edge4" class="edge">
<title>start&#45;&gt;ed4fc3c7&#45;771c&#45;4080&#45;8e2a&#45;028a8eee27a9</title>
<path fill="none" stroke="black" d="M28.64,-99.87C31.97,-99.87 47.97,-99.87 69.99,-99.87"/>
<polygon fill="black" stroke="black" points="70.15,-103.37 80.15,-99.87 70.15,-96.37 70.15,-103.37"/>
<text text-anchor="middle" x="54.34" y="-106.67" font-family="Helvetica,sans-Serif" font-size="14.00">Start</text>
</g>
<!-- end -->
<g id="node2" class="node">
<title>end</title>
</g>
<!-- d995703f&#45;c0bd&#45;4d9a&#45;8148&#45;47b76c5bd87a -->
<g id="node4" class="node">
<title>d995703f&#45;c0bd&#45;4d9a&#45;8148&#45;47b76c5bd87a</title>
<ellipse fill="white" stroke="black" cx="676" cy="-99.87" rx="199.31" ry="26.74"/>
<text text-anchor="middle" x="676" y="-103.67" font-family="Helvetica,sans-Serif" font-size="14.00">▶ Modify</text>
<text text-anchor="middle" x="676" y="-88.67" font-family="Helvetica,sans-Serif" font-size="14.00">Brokers/BrokerUtils/broker_tax_calc.py</text>
</g>
<!-- ed4fc3c7&#45;771c&#45;4080&#45;8e2a&#45;028a8eee27a9&#45;&gt;d995703f&#45;c0bd&#45;4d9a&#45;8148&#45;47b76c5bd87a -->
<g id="edge2" class="edge">
<title>ed4fc3c7&#45;771c&#45;4080&#45;8e2a&#45;028a8eee27a9&#45;&gt;d995703f&#45;c0bd&#45;4d9a&#45;8148&#45;47b76c5bd87a</title>
<path fill="none" stroke="black" d="M423.84,-99.87C437.97,-99.87 452.11,-99.87 466.24,-99.87"/>
<polygon fill="black" stroke="black" points="466.53,-103.37 476.53,-99.87 466.53,-96.37 466.53,-103.37"/>
</g>
<!-- 80eb114b&#45;137b&#45;414e&#45;80dd&#45;eba608e52205 -->
<g id="node5" class="node">
<title>80eb114b&#45;137b&#45;414e&#45;80dd&#45;eba608e52205</title>
<polygon fill="yellow" stroke="black" points="438,-36 0,-36 0,0 438,0 438,-36"/>
<text text-anchor="middle" x="219" y="-14.3" font-family="Helvetica,sans-Serif" font-size="14.00">⋯ Run GitHub Actions for `Brokers/BrokerUtils/constants.py`</text>
</g>
<!-- ed4fc3c7&#45;771c&#45;4080&#45;8e2a&#45;028a8eee27a9&#45;&gt;80eb114b&#45;137b&#45;414e&#45;80dd&#45;eba608e52205 -->
<g id="edge1" class="edge">
<title>ed4fc3c7&#45;771c&#45;4080&#45;8e2a&#45;028a8eee27a9&#45;&gt;80eb114b&#45;137b&#45;414e&#45;80dd&#45;eba608e52205</title>
<path fill="none" stroke="black" stroke-dasharray="5,2" d="M241.19,-72.72C237.59,-63.99 233.57,-54.26 229.95,-45.51"/>
<polygon fill="black" stroke="black" points="233.14,-44.05 226.08,-36.15 226.67,-46.73 233.14,-44.05"/>
</g>
<!-- d995703f&#45;c0bd&#45;4d9a&#45;8148&#45;47b76c5bd87a&#45;&gt;end -->
<g id="edge5" class="edge">
<title>d995703f&#45;c0bd&#45;4d9a&#45;8148&#45;47b76c5bd87a&#45;&gt;end</title>
<path fill="none" stroke="black" d="M875.64,-99.87C895.47,-99.87 912,-99.87 922.15,-99.87"/>
<polygon fill="black" stroke="black" points="922.38,-103.37 932.38,-99.87 922.38,-96.37 922.38,-103.37"/>
<text text-anchor="middle" x="903.95" y="-106.67" font-family="Helvetica,sans-Serif" font-size="14.00">Finish</text>
</g>
<!-- 1585929a&#45;eae8&#45;4c65&#45;b0cd&#45;25e68e9bee62 -->
<g id="node6" class="node">
<title>1585929a&#45;eae8&#45;4c65&#45;b0cd&#45;25e68e9bee62</title>
<polygon fill="white" stroke="black" points="929.5,-36 456.5,-36 456.5,0 929.5,0 929.5,-36"/>
<text text-anchor="middle" x="693" y="-14.3" font-family="Helvetica,sans-Serif" font-size="14.00">▶ Run GitHub Actions for `Brokers/BrokerUtils/broker_tax_calc.py`</text>
</g>
<!-- d995703f&#45;c0bd&#45;4d9a&#45;8148&#45;47b76c5bd87a&#45;&gt;1585929a&#45;eae8&#45;4c65&#45;b0cd&#45;25e68e9bee62 -->
<g id="edge3" class="edge">
<title>d995703f&#45;c0bd&#45;4d9a&#45;8148&#45;47b76c5bd87a&#45;&gt;1585929a&#45;eae8&#45;4c65&#45;b0cd&#45;25e68e9bee62</title>
<path fill="none" stroke="black" stroke-dasharray="5,2" d="M681.57,-72.72C683.38,-64.18 685.41,-54.68 687.24,-46.08"/>
<polygon fill="black" stroke="black" points="690.69,-46.66 689.35,-36.15 683.85,-45.2 690.69,-46.66"/>
</g>
</g>
</svg>
